<svg width="20" height="21" viewBox="0 0 20 21" fill="none" xmlns="http://www.w3.org/2000/svg">
<path fill-rule="evenodd" clip-rule="evenodd" d="M9.99985 0.272705C7.02605 0.272705 4.61532 2.56215 4.61532 5.38634C4.61532 8.21053 7.02605 10.5 9.99985 10.5C12.9737 10.5 15.3844 8.21053 15.3844 5.38634C15.3844 2.56215 12.9737 0.272705 9.99985 0.272705ZM6.15376 5.38634C6.15376 3.36938 7.87604 1.73374 9.99985 1.73374C12.1237 1.73374 13.8459 3.36938 13.8459 5.38634C13.8459 7.40331 12.1237 9.03894 9.99985 9.03894C7.87604 9.03894 6.15376 7.40331 6.15376 5.38634Z" fill="black"/>
<path fill-rule="evenodd" clip-rule="evenodd" d="M3.54164 11.961C2.52627 11.961 1.50627 12.4439 1.01397 13.387C0.610904 14.1584 0.117839 15.3054 0.0101488 16.4917C-0.0690808 17.3698 0.315522 18.2742 1.16628 18.7768C2.51318 19.5709 5.28853 20.7273 10 20.7273C14.7115 20.7273 17.4868 19.5709 18.8337 18.7768C19.6845 18.2742 20.0691 17.3698 19.9899 16.4917C19.8822 15.3054 19.3891 14.1584 18.986 13.387C18.4937 12.4439 17.4737 11.961 16.4584 11.961H3.54164ZM2.39241 14.0357C2.58471 13.6668 3.01472 13.4221 3.54164 13.4221H16.4584C16.9853 13.4221 17.4153 13.6668 17.6076 14.0357C17.9768 14.7429 18.3737 15.6976 18.4568 16.6166C18.4937 17.025 18.3145 17.3625 18.0222 17.5356C16.9245 18.1828 14.4315 19.2662 10 19.2662C5.56853 19.2662 3.0755 18.1828 1.97782 17.5356C1.68552 17.3625 1.50629 17.025 1.54321 16.6166C1.62629 15.6976 2.02318 14.7429 2.39241 14.0357Z" fill="black"/>
</svg>
