<svg width="110" height="110" viewBox="0 0 110 110" fill="none" xmlns="http://www.w3.org/2000/svg">
<circle cx="55" cy="55" r="55" fill="#D9D9D9"/>
<path d="M54.5 37C55.7075 37 56.6875 37.98 56.6875 39.1875V52.3125H69.8125C71.02 52.3125 72 53.2925 72 54.5C72 55.7075 71.02 56.6875 69.8125 56.6875H56.6875V69.8125C56.6875 71.0156 55.7075 72 54.5 72C53.2925 72 52.3125 71.0156 52.3125 69.8125V56.6875H39.1875C37.98 56.6875 37 55.7075 37 54.5C37 53.2925 37.98 52.3125 39.1875 52.3125H52.3125V39.1875C52.3125 37.98 53.2925 37 54.5 37Z" fill="#8C8C8C"/>
</svg>
