<svg width="13" height="13" viewBox="0 0 13 13" fill="none" xmlns="http://www.w3.org/2000/svg">
<path fill-rule="evenodd" clip-rule="evenodd" d="M1.76431 0.0471278C0.882165 -0.188971 0.0232324 0.491716 0.0185896 1.42564L0 10.2165C0 10.8687 0.427143 11.4399 1.04464 11.6017L6.04036 12.9393C6.35143 13.0202 6.6718 13.0202 6.97823 12.9393L11.96 11.6017C12.5729 11.4399 13 10.8687 13 10.2213V1.43041C13 0.494577 12.1364 -0.188482 11.2543 0.0490454L6.75538 1.25763C6.60217 1.29904 6.43966 1.29903 6.28645 1.25809L1.76431 0.0471278ZM0.947161 1.42756C0.947161 1.11625 1.23502 0.889182 1.52752 0.968199L6.03571 2.17489V11.954L1.27679 10.683C1.0725 10.6259 0.928571 10.4355 0.928571 10.2213L0.947161 1.42756ZM6.96429 11.9587L11.7232 10.683C11.9275 10.6259 12.0714 10.4403 12.0714 10.2213V1.43041C12.0714 1.11862 11.7836 0.890624 11.4911 0.970117L6.99217 2.1787C6.98288 2.18108 6.97357 2.18346 6.96429 2.18584V11.9587Z" fill="black"/>
</svg>
