<svg width="35" height="35" viewBox="0 0 35 35" fill="none" xmlns="http://www.w3.org/2000/svg">
<path d="M17.5 7.5C18.19 7.5 18.75 8.06 18.75 8.75V16.25H26.25C26.94 16.25 27.5 16.81 27.5 17.5C27.5 18.19 26.94 18.75 26.25 18.75H18.75V26.25C18.75 26.9375 18.19 27.5 17.5 27.5C16.81 27.5 16.25 26.9375 16.25 26.25V18.75H8.75C8.06 18.75 7.5 18.19 7.5 17.5C7.5 16.81 8.06 16.25 8.75 16.25H16.25V8.75C16.25 8.06 16.81 7.5 17.5 7.5Z" fill="#8C8C8C"/>
<path fill-rule="evenodd" clip-rule="evenodd" d="M17.5 0C7.835 0 0 7.835 0 17.5C0 27.1625 7.835 35 17.5 35C27.165 35 35 27.1625 35 17.5C35 7.835 27.165 0 17.5 0ZM2.5 17.5C2.5 9.21625 9.21625 2.5 17.5 2.5C25.7838 2.5 32.5 9.21625 32.5 17.5C32.5 25.7875 25.7838 32.5 17.5 32.5C9.21625 32.5 2.5 25.7875 2.5 17.5Z" fill="#8C8C8C"/>
</svg>
