<svg width="60" height="55" viewBox="0 0 60 55" fill="none" xmlns="http://www.w3.org/2000/svg">
<path d="M0 14.4737C0 6.48009 6.39593 0 14.2857 0H45.7143C53.6041 0 60 6.48009 60 14.4737V40.5263C60 48.5199 53.6041 55 45.7143 55H14.2857C6.39593 55 0 48.5199 0 40.5263V14.4737Z" fill="#FFEC44"/>
<path fill-rule="evenodd" clip-rule="evenodd" d="M26.9661 8.16401C18.873 8.16401 12.3123 14.8794 12.3123 23.1633C12.3123 31.4472 18.873 38.1626 26.9661 38.1626C31.0092 38.1626 34.3316 36.4832 36.9847 33.7719C39.6433 31.0549 41.6199 27.3088 41.6199 23.1633C41.6199 14.8794 35.0592 8.16401 26.9661 8.16401ZM10.4762 23.1633C10.4762 13.0263 17.6395 7.7193 26.9661 6.75439C35.7864 7.7193 42.4721 13.5088 43.4272 23.1633C42.9497 27.9062 42.2054 30.1725 39.6068 33.2895L48.6803 42.9386C49.226 43.4957 51.4373 46.6161 50.5905 47.2807C49.7436 47.9453 47.2476 47.2807 46.2925 46.3158L35.7864 36.6667C32.7426 39.318 31.1277 39.5614 26.8167 39.5614C17.6395 39.5614 10.9537 32.807 10.4762 23.1633Z" fill="black"/>
<path fill-rule="evenodd" clip-rule="evenodd" d="M23.4342 14.1074C23.5443 12.2939 25.017 11.0965 26.8167 11.0965C28.6164 11.0965 30.0891 12.2939 30.1993 14.1074C30.3238 14.1568 30.4467 14.2089 30.5679 14.2635C31.899 13.0614 33.9318 13.1109 35.2053 14.4144C36.478 15.7171 36.5263 17.7978 35.3519 19.1603C35.4053 19.2843 35.4561 19.4101 35.5044 19.5376C37.2762 19.6503 38.6794 21.1577 38.6794 22.9999C38.6794 24.842 37.2762 26.3494 35.5044 26.4622C35.4561 26.5896 35.4053 26.7154 35.3519 26.8394C36.5263 28.202 36.478 30.2826 35.2044 31.5853C33.9317 32.8889 31.899 32.9383 30.5679 31.7362C30.4467 31.7909 30.3238 31.8429 30.1993 31.8923C30.0891 33.7059 28.6164 35.1421 26.8167 35.1421C25.017 35.1421 23.5443 33.7059 23.4342 31.8923C23.3096 31.8429 23.1868 31.7909 23.0656 31.7362C21.7344 32.9383 19.7017 32.8889 18.429 31.5853C17.1555 30.2826 17.1071 28.202 18.2815 26.8394C18.2282 26.7154 18.1773 26.5896 18.129 26.4622C16.3573 26.3494 14.9541 24.842 14.9541 22.9999C14.9541 21.1577 16.3573 19.6503 18.129 19.5376C18.1773 19.4101 18.2282 19.2843 18.2815 19.1603C17.1071 17.7978 17.1555 15.7171 18.429 14.4144C19.7017 13.1109 21.7344 13.0614 23.0656 14.2635C23.1868 14.2089 23.3096 14.1568 23.4342 14.1074ZM19.6271 18.0935C20.0576 18.535 20.1364 19.1872 19.8983 19.7102C19.8085 19.9096 19.7262 20.1126 19.6517 20.3199C19.4585 20.8619 18.9526 21.2653 18.3434 21.2653C17.4071 21.2653 16.6487 22.0415 16.6487 22.9999C16.6487 23.9582 17.4071 24.7345 18.3434 24.7345C18.9526 24.7345 19.4585 25.1378 19.6517 25.6799C19.7262 25.8872 19.8085 26.0901 19.8983 26.2896C20.1364 26.8126 20.0576 27.4647 19.6271 27.9062C18.9654 28.5836 18.9654 29.6816 19.6271 30.3589C20.2889 31.0363 21.3616 31.0363 22.0234 30.3589C22.4547 29.9184 23.0918 29.8377 23.6028 30.0814C23.7977 30.1733 23.9959 30.2575 24.1984 30.3338C24.728 30.5315 25.1221 31.0493 25.1221 31.6729C25.1221 32.6313 25.8804 33.4075 26.8167 33.4075C27.753 33.4075 28.5114 32.6313 28.5114 31.6729C28.5114 31.0493 28.9054 30.5315 29.435 30.3338C29.6375 30.2575 29.8366 30.1733 30.0307 30.0814C30.5416 29.8377 31.1788 29.9184 31.6101 30.3589C32.2718 31.0363 33.3445 31.0363 34.0063 30.3589C34.6681 29.6816 34.6681 28.5836 34.0063 27.9062C33.5759 27.4647 33.4971 26.8126 33.7352 26.2896C33.825 26.0901 33.9072 25.8872 33.9817 25.6799C34.1749 25.1378 34.6808 24.7345 35.29 24.7345C36.2263 24.7345 36.9847 23.9582 36.9847 22.9999C36.9847 22.0415 36.2263 21.2653 35.29 21.2653C34.6808 21.2653 34.1749 20.8619 33.9817 20.3199C33.9072 20.1126 33.825 19.9096 33.7352 19.7102C33.4971 19.1872 33.5759 18.535 34.0063 18.0935C34.6681 17.4162 34.6681 16.3182 34.0063 15.6408C33.3445 14.9634 32.2718 14.9634 31.6101 15.6408C31.1788 16.0814 30.5416 16.162 30.0307 15.9183C29.8366 15.8264 29.6375 15.7423 29.435 15.6659C28.9054 15.4682 28.5114 14.9504 28.5114 14.3268C28.5114 13.3684 27.753 12.5922 26.8167 12.5922C25.8804 12.5922 25.1221 13.3684 25.1221 14.3268C25.1221 14.9504 24.728 15.4682 24.1984 15.6659C23.9959 15.7423 23.7968 15.8264 23.6028 15.9183C23.0918 16.162 22.4547 16.0814 22.0234 15.6408C21.3616 14.9634 20.2889 14.9634 19.6271 15.6408C18.9654 16.3182 18.9654 17.4162 19.6271 18.0935Z" fill="black"/>
<path fill-rule="evenodd" clip-rule="evenodd" d="M26.8167 19.1603C25.0184 19.1603 23.0656 21.1591 23.0656 22.9999C23.0656 24.8406 24.9146 27.0175 26.7129 27.0175C28.5113 27.0175 30.5679 24.8406 30.5679 22.9999C30.5679 21.1591 28.6151 19.1603 26.8167 19.1603ZM21.9321 22.9999C21.9321 20.2383 24.1188 18.0001 26.8167 18.0001C29.5147 18.0001 31.7013 20.2383 31.7013 22.9999C31.7013 25.7614 29.5147 27.9996 26.8167 27.9996C24.1188 27.9996 21.9321 25.7614 21.9321 22.9999Z" fill="black"/>
</svg>
