<svg width="13" height="13" viewBox="0 0 13 13" fill="none" xmlns="http://www.w3.org/2000/svg">
<path fill-rule="evenodd" clip-rule="evenodd" d="M1.78239 0.928912C1.33482 0.928912 0.928571 1.32045 0.928571 1.85782V11.6021C0.928571 11.9876 1.36685 12.2059 1.67235 11.9737L4.26818 10.0137C4.7645 9.64211 5.44979 9.64211 5.94611 10.0137L8.54193 11.9737C8.84743 12.2059 9.28571 11.9876 9.28571 11.6021V1.75053C9.28571 1.44956 9.36417 1.17089 9.50114 0.928912H1.78239ZM11.1429 0H1.78239C0.773959 0 0 0.856457 0 1.85782V11.6021C0 12.754 1.3144 13.4089 2.23182 12.7168L4.82765 10.7568C4.99293 10.6314 5.22135 10.6314 5.38664 10.7568L7.98246 12.7168C8.89989 13.4089 10.2143 12.754 10.2143 11.6021V5.10902H11.6071C12.3765 5.10902 13 4.48525 13 3.71565V1.75053C13 0.749624 12.1327 0 11.1429 0ZM10.2143 4.18011H11.6071C11.8634 4.18011 12.0714 3.97203 12.0714 3.71565V1.75053C12.0714 1.33112 11.6912 0.928912 11.1429 0.928912C10.5945 0.928912 10.2143 1.33112 10.2143 1.75053V4.18011Z" fill="black"/>
</svg>
