<svg width="20" height="20" viewBox="0 0 20 20" fill="none" xmlns="http://www.w3.org/2000/svg">
<path d="M6.09765 20C6.06838 20 6.03911 20 6.0196 20C5.6196 19.9487 5.32691 19.5691 5.37569 19.1484L7.32691 0.680923C7.37569 0.260274 7.73667 -0.0372587 8.13667 0.00378022C8.53667 0.0550789 8.82935 0.434689 8.78057 0.855338L6.82935 19.3229C6.78057 19.7127 6.46838 20 6.09765 20Z" fill="black"/>
<path d="M11.9513 20C11.922 20 11.8928 20 11.8733 20C11.4733 19.9487 11.1806 19.5691 11.2294 19.1484L13.1806 0.680923C13.2294 0.260274 13.5806 -0.0372587 13.9903 0.00378022C14.3903 0.0550789 14.683 0.434689 14.6342 0.855338L12.683 19.3229C12.6342 19.7127 12.322 20 11.9513 20Z" fill="black"/>
<path d="M19.2683 7.68829H1.70732C1.30732 7.68829 0.97561 7.33946 0.97561 6.91881C0.97561 6.49816 1.30732 6.14933 1.70732 6.14933H19.2683C19.6683 6.14933 20 6.49816 20 6.91881C20 7.33946 19.6683 7.68829 19.2683 7.68829Z" fill="black"/>
<path d="M18.2927 13.8441H0.731707C0.331707 13.8441 0 13.4953 0 13.0746C0 12.654 0.331707 12.3052 0.731707 12.3052H18.2927C18.6927 12.3052 19.0244 12.654 19.0244 13.0746C19.0244 13.4953 18.6927 13.8441 18.2927 13.8441Z" fill="black"/>
</svg>
