<svg width="30" height="30" viewBox="0 0 30 30" fill="none" xmlns="http://www.w3.org/2000/svg">
<rect width="30" height="30" rx="15" fill="#1C66FB"/>
<path d="M14.1543 13.9147C14.4416 13.4839 14.5852 12.9813 14.5852 12.4068C14.5852 10.8989 13.2927 9.75 11.8565 9.75H7.69179C7.47638 9.75 7.33276 9.89361 7.33276 10.109V19.2284C7.33276 19.4438 7.47638 19.5874 7.69179 19.5874H12.2874C14.0107 19.5874 15.4468 18.2231 15.4468 16.4998C15.4468 15.4227 14.9442 14.4892 14.1543 13.9147ZM9.12791 11.617H11.8565C12.3592 11.617 12.7182 12.0478 12.7182 12.4786C12.7182 12.9813 12.2874 13.3403 11.8565 13.3403H9.12791V11.617ZM12.3592 17.7923H9.12791V15.2073H12.3592C13.0772 15.2073 13.6517 15.7817 13.6517 16.4998C13.6517 17.2178 13.0772 17.7923 12.3592 17.7923Z" fill="white"/>
<path d="M23.4173 15.8535C23.4173 13.6993 21.7658 11.976 19.6834 11.976C17.601 11.976 15.9495 13.6993 15.9495 15.8535C15.9495 18.0077 17.601 19.731 19.6834 19.731C20.9041 19.731 22.053 19.0848 22.771 18.0077C22.8428 17.8641 22.9147 17.7205 22.9865 17.5768C23.0583 17.505 22.9865 17.3614 22.8428 17.3614H21.0477C20.9759 17.3614 20.9759 17.3614 20.9041 17.4332C20.5451 17.7923 20.1142 17.9359 19.6834 17.9359C18.7499 17.9359 18.0318 17.2896 17.8164 16.3562H23.0583C23.2737 16.3562 23.4173 16.2125 23.4173 15.9971V15.8535ZM19.6834 13.8429C20.3296 13.8429 20.9041 14.202 21.2631 14.7764H18.1037C18.3909 14.202 19.0371 13.8429 19.6834 13.8429Z" fill="white"/>
<path d="M21.1913 11.5452H17.8882C17.7446 11.5452 17.601 11.4015 17.601 11.2579V10.4681C17.601 10.3245 17.7446 10.1808 17.8882 10.1808H21.1913C21.3349 10.1808 21.4785 10.3245 21.4785 10.4681V11.3297C21.4785 11.4015 21.4067 11.5452 21.1913 11.5452Z" fill="white"/>
</svg>
