<svg width="30" height="30" viewBox="0 0 30 30" fill="none" xmlns="http://www.w3.org/2000/svg">
<path d="M30 15C30 6.71573 23.2843 0 15 0C6.71573 0 0 6.71573 0 15C0 23.2843 6.71573 30 15 30C23.2843 30 30 23.2843 30 15Z" fill="white"/>
<path fill-rule="evenodd" clip-rule="evenodd" d="M11.6442 6.09C11.5985 6.24011 11.4179 6.87605 11.3017 7.29594C10.504 10.1777 9.06446 15.4141 8.63845 16.9837C8.08903 19.0079 8.12151 20.5277 8.74176 21.8139C9.59316 23.5796 11.7521 24.3449 14.4984 23.8543C16.9581 23.415 19.4244 21.8494 20.9053 19.787C21.1613 19.4305 21.4155 19.0579 21.4703 18.9591C21.9956 18.0102 22.3049 17.0671 22.4556 15.9543C22.6105 14.8116 22.3521 13.4854 21.8024 12.6016C21.1117 11.491 19.781 10.6471 18.4822 10.496L18.0678 10.4477L17.8866 10.9418C17.7869 11.2134 17.5124 11.9379 17.2766 12.5517C16.4984 14.5777 16.1559 15.5147 16.1559 15.6178C16.1559 15.7009 16.3472 15.7195 17.2017 15.7195C17.777 15.7195 18.2635 15.7462 18.2831 15.7786C18.3026 15.8112 18.1265 16.1271 17.8916 16.4806C17.4753 17.1073 16.9004 17.9747 15.7117 19.7693C15.3904 20.2544 14.7102 21.2831 14.2 22.0552C13.6899 22.8274 13.2104 23.5239 13.1344 23.6031C12.9966 23.7469 12.9965 23.7468 13.0696 23.5671C13.1097 23.4681 13.3996 22.7068 13.7136 21.8752C14.0276 21.0437 14.4653 19.8867 14.6863 19.3042C14.9073 18.7216 15.0711 18.2276 15.0503 18.2062C15.0295 18.1849 14.5506 18.1674 13.9859 18.1674C13.4212 18.1674 12.9429 18.1506 12.923 18.1301C12.9031 18.1096 12.9778 17.7613 13.0891 17.3562C13.2004 16.951 13.4823 15.9229 13.7154 15.0716C13.9487 14.2202 14.2637 13.0701 14.4156 12.5157C14.5674 11.9613 14.7349 11.3457 14.7878 11.1477C14.8407 10.9498 15.1701 9.76376 15.5199 8.51225C15.8697 7.26066 16.1559 6.18338 16.1559 6.11836C16.1559 6.01102 15.9471 6 13.9137 6C12.1813 6 11.6653 6.02045 11.6442 6.09Z" fill="url(#paint0_linear_282_713)"/>
<defs>
<linearGradient id="paint0_linear_282_713" x1="15.375" y1="6" x2="15.375" y2="24" gradientUnits="userSpaceOnUse">
<stop stop-color="#F07929"/>
<stop offset="1" stop-color="#F15F2C"/>
</linearGradient>
</defs>
</svg>
