<svg width="30" height="30" viewBox="0 0 30 30" fill="none" xmlns="http://www.w3.org/2000/svg">
<path d="M30 15C30 6.71573 23.2843 0 15 0C6.71573 0 0 6.71573 0 15C0 23.2843 6.71573 30 15 30C23.2843 30 30 23.2843 30 15Z" fill="#231E1B"/>
<path fill-rule="evenodd" clip-rule="evenodd" d="M14.9771 7.67993C10.8486 7.67993 7.5 11.0286 7.5 15.157C7.5 18.4597 9.65596 21.2579 12.5917 22.2671C12.9587 22.313 13.0963 22.0836 13.0963 21.9001C13.0963 21.7166 13.0963 21.2579 13.0963 20.6157C11.0321 21.0744 10.5734 19.6065 10.5734 19.6065C10.2523 18.735 9.74771 18.5056 9.74771 18.5056C9.05963 18.0469 9.79358 18.0469 9.79358 18.0469C10.5275 18.0928 10.9404 18.8267 10.9404 18.8267C11.6284 19.9735 12.6835 19.6524 13.0963 19.4689C13.1422 18.9643 13.3716 18.6432 13.555 18.4597C11.9037 18.2763 10.1606 17.6341 10.1606 14.7442C10.1606 13.9185 10.4358 13.2763 10.9404 12.7258C10.8945 12.5882 10.6193 11.8084 11.0321 10.7992C11.0321 10.7992 11.6743 10.6157 13.0963 11.579C13.6927 11.3955 14.3349 11.3497 14.9771 11.3497C15.6193 11.3497 16.2615 11.4414 16.8578 11.579C18.2798 10.6157 18.922 10.7992 18.922 10.7992C19.3349 11.8084 19.0596 12.5882 19.0138 12.7717C19.4725 13.2763 19.7936 13.9643 19.7936 14.79C19.7936 17.6799 18.0505 18.2763 16.3991 18.4597C16.6743 18.6891 16.9037 19.1478 16.9037 19.8359C16.9037 20.8451 16.9037 21.6249 16.9037 21.9001C16.9037 22.0836 17.0413 22.313 17.4083 22.2671C20.3899 21.2579 22.5 18.4597 22.5 15.157C22.4541 11.0286 19.1055 7.67993 14.9771 7.67993Z" fill="white"/>
</svg>
