<svg width="30" height="30" viewBox="0 0 30 30" fill="none" xmlns="http://www.w3.org/2000/svg">
<rect width="30" height="30" rx="15" fill="#2878B7"/>
<path d="M21 15.5583V19.6951H18.5785V15.8105C18.5785 14.852 18.2253 14.1962 17.3677 14.1962C16.7119 14.1962 16.3083 14.6502 16.157 15.0538C16.1065 15.2052 16.0561 15.407 16.0561 15.6592V19.6951H13.6345C13.6345 19.6951 13.685 13.1368 13.6345 12.4809H16.0561V13.4899C16.3587 12.9854 16.9641 12.2791 18.2253 12.2791C19.7892 12.2791 21 13.3386 21 15.5583ZM11.1121 9C10.3049 9 9.75 9.55493 9.75 10.2612C9.75 10.9675 10.2545 11.5224 11.0617 11.5224C11.9193 11.5224 12.4238 10.9675 12.4238 10.2612C12.4742 9.50448 11.9697 9 11.1121 9ZM9.90134 19.6951H12.3229V12.4809H9.90134V19.6951Z" fill="white"/>
</svg>
