<svg width="30" height="30" viewBox="0 0 30 30" fill="none" xmlns="http://www.w3.org/2000/svg">
<path d="M30 15C30 6.71573 23.2843 0 15 0C6.71573 0 0 6.71573 0 15C0 23.2843 6.71573 30 15 30C23.2843 30 30 23.2843 30 15Z" fill="#4C9AE8"/>
<path d="M11.804 12.4847C12.5592 12.4847 13.1714 11.8725 13.1714 11.1174C13.1714 10.3622 12.5592 9.75 11.804 9.75C11.0488 9.75 10.4366 10.3622 10.4366 11.1174C10.4366 11.8725 11.0488 12.4847 11.804 12.4847Z" fill="white"/>
<path d="M18.1851 12.4847C18.9403 12.4847 19.5525 11.8725 19.5525 11.1174C19.5525 10.3622 18.9403 9.75 18.1851 9.75C17.4299 9.75 16.8177 10.3622 16.8177 11.1174C16.8177 11.8725 17.4299 12.4847 18.1851 12.4847Z" fill="white"/>
<path d="M7.57208 20.1445C7.42523 20.1443 7.28109 20.1049 7.15463 20.0302C7.02817 19.9555 6.92399 19.8484 6.85289 19.7199C6.7818 19.5914 6.74637 19.4462 6.75029 19.2994C6.75422 19.1526 6.79734 19.0095 6.8752 18.885L8.94133 15.5807C9.05742 15.3963 9.24185 15.2656 9.45419 15.217C9.66653 15.1684 9.88946 15.206 10.0741 15.3216C10.2588 15.4371 10.3901 15.6211 10.4393 15.8333C10.4886 16.0455 10.4517 16.2685 10.3367 16.4536L8.27057 19.7579C8.19659 19.8764 8.09364 19.9741 7.97142 20.0417C7.84921 20.1094 7.71177 20.1447 7.57208 20.1445Z" fill="white"/>
<path d="M14.987 20.7145C13.7351 20.718 12.4991 20.4343 11.3741 19.8851C10.249 19.3359 9.26499 18.536 8.49768 17.5468L9.79499 16.5332C10.4105 17.3224 11.1979 17.961 12.0973 18.4003C12.9967 18.8395 13.9843 19.068 14.9852 19.0683C15.9861 19.0686 16.974 18.8408 17.8736 18.4021C18.7732 17.9633 19.561 17.3253 20.177 16.5364L21.4736 17.55C20.7062 18.5382 19.7225 19.3373 18.598 19.8859C17.4735 20.4345 16.2382 20.7179 14.987 20.7145Z" fill="white"/>
<path d="M22.4095 20.1445C22.2699 20.1448 22.1324 20.1094 22.0102 20.0417C21.888 19.9741 21.785 19.8764 21.7111 19.7579L19.6449 16.4536C19.53 16.2685 19.4931 16.0455 19.5423 15.8333C19.5915 15.6211 19.7228 15.4371 19.9075 15.3216C20.0922 15.206 20.3151 15.1684 20.5274 15.217C20.7398 15.2656 20.9242 15.3963 21.0403 15.5807L23.1065 18.885C23.1843 19.0095 23.2274 19.1526 23.2314 19.2994C23.2353 19.4462 23.1999 19.5914 23.1288 19.7199C23.0577 19.8484 22.9535 19.9555 22.827 20.0302C22.7006 20.1049 22.5564 20.1444 22.4096 20.1445H22.4095Z" fill="white"/>
</svg>
