<svg width="30" height="30" viewBox="0 0 30 30" fill="none" xmlns="http://www.w3.org/2000/svg">
<path d="M30 15C30 6.71573 23.2843 0 15 0C6.71573 0 0 6.71573 0 15C0 23.2843 6.71573 30 15 30C23.2843 30 30 23.2843 30 15Z" fill="#4A154B"/>
<path d="M10.6648 16.9824C10.6648 17.8543 9.96021 18.5589 9.0884 18.5589C8.21658 18.5589 7.51196 17.8543 7.51196 16.9824C7.51196 16.1106 8.21658 15.406 9.0884 15.406H10.6648V16.9824Z" fill="#E01E5A"/>
<path d="M11.4532 16.9824C11.4532 16.1106 12.1579 15.406 13.0297 15.406C13.9015 15.406 14.6061 16.1106 14.6061 16.9824V20.9235C14.6061 21.7953 13.9015 22.5 13.0297 22.5C12.1579 22.5 11.4532 21.7953 11.4532 20.9235V16.9824Z" fill="#E01E5A"/>
<path d="M13.0297 10.6529C12.1579 10.6529 11.4532 9.94825 11.4532 9.07643C11.4532 8.20462 12.1579 7.5 13.0297 7.5C13.9015 7.5 14.6061 8.20462 14.6061 9.07643V10.6529H13.0297Z" fill="#36C5F0"/>
<path d="M13.0295 11.4531C13.9013 11.4531 14.6059 12.1577 14.6059 13.0296C14.6059 13.9014 13.9013 14.606 13.0295 14.606H9.07643C8.20462 14.606 7.5 13.9014 7.5 13.0296C7.5 12.1577 8.20462 11.4531 9.07643 11.4531H13.0295Z" fill="#36C5F0"/>
<path d="M19.3474 13.0296C19.3474 12.1577 20.052 11.4531 20.9238 11.4531C21.7957 11.4531 22.5003 12.1577 22.5003 13.0296C22.5003 13.9014 21.7957 14.606 20.9238 14.606H19.3474V13.0296Z" fill="#2EB67D"/>
<path d="M18.5589 13.0295C18.5589 13.9013 17.8543 14.6059 16.9824 14.6059C16.1106 14.6059 15.406 13.9013 15.406 13.0295V9.07643C15.406 8.20462 16.1106 7.5 16.9824 7.5C17.8543 7.5 18.5589 8.20462 18.5589 9.07643V13.0295Z" fill="#2EB67D"/>
<path d="M16.9824 19.3472C17.8543 19.3472 18.5589 20.0518 18.5589 20.9236C18.5589 21.7954 17.8543 22.5 16.9824 22.5C16.1106 22.5 15.406 21.7954 15.406 20.9236V19.3472H16.9824Z" fill="#ECB22E"/>
<path d="M16.9824 18.5589C16.1106 18.5589 15.406 17.8543 15.406 16.9824C15.406 16.1106 16.1106 15.406 16.9824 15.406H20.9355C21.8073 15.406 22.5119 16.1106 22.5119 16.9824C22.5119 17.8543 21.8073 18.5589 20.9355 18.5589H16.9824Z" fill="#ECB22E"/>
</svg>
