<svg width="30" height="30" viewBox="0 0 30 30" fill="none" xmlns="http://www.w3.org/2000/svg">
<rect width="30" height="30" rx="15" fill="#0077FF"/>
<path d="M15.7369 20.25C10.0995 20.25 6.88398 16.3086 6.75 9.75H9.57386C9.66661 14.5638 11.7484 16.6029 13.3974 17.0233V9.75H16.0564V13.9017C17.6847 13.723 19.3955 11.8311 19.9727 9.75H22.6316C22.4142 10.8293 21.9806 11.8512 21.3582 12.7519C20.7358 13.6525 19.9378 14.4125 19.0142 14.9842C20.0452 15.5067 20.9557 16.2461 21.6859 17.1538C22.416 18.0615 22.9491 19.1168 23.25 20.25H20.3231C20.053 19.2657 19.504 18.3846 18.745 17.7171C17.986 17.0496 17.0507 16.6255 16.0564 16.4977V20.25H15.7369Z" fill="white"/>
</svg>
