<svg width="21" height="20" viewBox="0 0 21 20" fill="none" xmlns="http://www.w3.org/2000/svg">
<path fill-rule="evenodd" clip-rule="evenodd" d="M10.3693 1.42857C5.72778 1.42857 1.96452 5.26643 1.96452 10C1.96452 14.7336 5.72778 18.5714 10.3693 18.5714C15.0109 18.5714 18.7742 14.7336 18.7742 10C18.7742 5.26643 15.0109 1.42857 10.3693 1.42857ZM0.563721 10C0.563721 4.47714 4.95384 0 10.3693 0C15.7848 0 20.175 4.47714 20.175 10C20.175 15.5229 15.7848 20 10.3693 20C4.95384 20 0.563721 15.5229 0.563721 10Z" fill="black"/>
<path fill-rule="evenodd" clip-rule="evenodd" d="M10.3693 8.57143C10.756 8.57143 11.0697 8.89143 11.0697 9.28571V15C11.0697 15.3943 10.756 15.7143 10.3693 15.7143C9.98271 15.7143 9.66894 15.3943 9.66894 15V9.28571C9.66894 8.89143 9.98271 8.57143 10.3693 8.57143Z" fill="black"/>
<path fill-rule="evenodd" clip-rule="evenodd" d="M10.3693 4.28571C10.756 4.28571 11.0697 4.60571 11.0697 5V6.42857C11.0697 6.82286 10.756 7.14286 10.3693 7.14286C9.98271 7.14286 9.66894 6.82286 9.66894 6.42857V5C9.66894 4.60571 9.98271 4.28571 10.3693 4.28571Z" fill="black"/>
</svg>
