<svg width="55" height="55" viewBox="0 0 55 55" fill="none" xmlns="http://www.w3.org/2000/svg">
<path d="M55 27.5C55 42.6878 42.6878 55 27.5 55C12.3122 55 0 42.6878 0 27.5C0 12.3122 12.3122 0 27.5 0C42.6878 0 55 12.3122 55 27.5Z" fill="white"/>
<path d="M37.1667 41.25C39.9281 41.25 42.2445 38.8994 41.0153 36.4266C40.2552 34.8974 39.1411 33.5079 37.7367 32.3375C36.3322 31.1671 34.6648 30.2387 32.8298 29.6053C30.9947 28.9718 29.0279 28.6458 27.0417 28.6458C25.0554 28.6458 23.0886 28.9718 21.2536 29.6053C19.4185 30.2387 17.7512 31.1671 16.3467 32.3375C14.9422 33.5079 13.8281 34.8974 13.068 36.4266C11.8389 38.8994 14.1552 41.25 16.9167 41.25L37.1667 41.25Z" fill="black"/>
<path d="M34.3241 20.625C34.3241 24.422 31.0636 27.5 27.0417 27.5C23.0197 27.5 19.7593 24.422 19.7593 20.625C19.7593 16.828 23.0197 13.75 27.0417 13.75C31.0636 13.75 34.3241 16.828 34.3241 20.625Z" fill="black"/>
</svg>
