<svg width="75" height="75" viewBox="0 0 75 75" fill="none" xmlns="http://www.w3.org/2000/svg">
<path d="M75 37.5C75 58.2107 58.2107 75 37.5 75C16.7893 75 0 58.2107 0 37.5C0 16.7893 16.7893 0 37.5 0C58.2107 0 75 16.7893 75 37.5Z" fill="white"/>
<path d="M57.5 56.25C57.5 53.9929 56.9665 51.7579 55.93 49.6726C54.8935 47.5873 53.3743 45.6926 51.4591 44.0966C49.5439 42.5006 47.2702 41.2346 44.7678 40.3708C42.2655 39.5071 39.5835 39.0625 36.875 39.0625C34.1665 39.0625 31.4845 39.5071 28.9822 40.3708C26.4798 41.2346 24.2061 42.5006 22.2909 44.0966C20.3757 45.6926 18.8565 47.5873 17.82 49.6726C16.7835 51.7579 16.25 53.9929 16.25 56.25L57.5 56.25Z" fill="black"/>
<path d="M46.8056 28.125C46.8056 33.3027 42.3595 37.5 36.875 37.5C31.3905 37.5 26.9444 33.3027 26.9444 28.125C26.9444 22.9473 31.3905 18.75 36.875 18.75C42.3595 18.75 46.8056 22.9473 46.8056 28.125Z" fill="black"/>
</svg>
