<svg width="21" height="20" viewBox="0 0 21 20" fill="none" xmlns="http://www.w3.org/2000/svg">
<path d="M11.0697 11.4286C11.0697 11.0357 10.756 10.7143 10.3693 10.7143C9.98271 10.7143 9.66894 11.0357 9.66894 11.4286V14.2857C9.66894 14.6786 9.98271 15 10.3693 15C10.756 15 11.0697 14.6786 11.0697 14.2857V11.4286Z" fill="black"/>
<path fill-rule="evenodd" clip-rule="evenodd" d="M10.3693 0C13.851 0 16.6729 2.87857 16.6729 6.42857C18.6068 6.42857 20.175 8.02857 20.175 10V16.4286C20.175 18.4 18.6068 20 16.6729 20H4.06573C2.13192 20 0.563721 18.4 0.563721 16.4286V10C0.563721 8.02857 2.13192 6.42857 4.06573 6.42857C4.06573 2.87857 6.88764 0 10.3693 0ZM10.3693 1.42857C7.66159 1.42857 5.46653 3.66429 5.46653 6.42857H15.2721C15.2721 3.66429 13.0771 1.42857 10.3693 1.42857ZM18.7742 16.4286V10C18.7742 8.81429 17.8335 7.85714 16.6729 7.85714H4.06573C2.90516 7.85714 1.96452 8.81429 1.96452 10V16.4286C1.96452 17.6143 2.90516 18.5714 4.06573 18.5714H16.6729C17.8335 18.5714 18.7742 17.6143 18.7742 16.4286Z" fill="black"/>
</svg>
