<svg width="275" height="65" viewBox="0 0 275 65" fill="none" xmlns="http://www.w3.org/2000/svg">
<path d="M75.1171 29.45C72.7005 29.45 70.8338 28.8833 69.5171 27.75C68.2171 26.6 67.5755 24.8833 67.5921 22.6H71.6671C71.6505 23.55 71.9338 24.275 72.5171 24.775C73.1005 25.275 73.9171 25.525 74.9671 25.525C75.8338 25.525 76.5171 25.3833 77.0171 25.1C77.5171 24.8167 77.7671 24.3833 77.7671 23.8C77.7671 23.3167 77.5088 22.9667 76.9921 22.75C76.4921 22.5333 75.9921 22.3833 75.4921 22.3C74.9921 22.2 74.6838 22.1417 74.5671 22.125C73.2838 21.875 72.1755 21.575 71.2421 21.225C70.3088 20.8583 69.5255 20.3083 68.8921 19.575C68.2588 18.8417 67.9421 17.875 67.9421 16.675C67.9421 15.475 68.2588 14.4583 68.8921 13.625C69.5255 12.775 70.3671 12.1417 71.4171 11.725C72.4838 11.3083 73.6421 11.1 74.8921 11.1C76.4088 11.1 77.7171 11.3833 78.8171 11.95C79.9338 12.5167 80.8088 13.375 81.4421 14.525C81.7588 15.075 81.9505 15.6083 82.0171 16.125C82.0838 16.625 82.1171 17.1167 82.1171 17.6H78.0421C78.0421 16.7 77.8005 16.0417 77.3171 15.625C76.8338 15.1917 76.0838 14.975 75.0671 14.975C74.2505 14.975 73.6171 15.1167 73.1671 15.4C72.7171 15.6833 72.4921 16.0667 72.4921 16.55C72.4921 17.0833 72.7921 17.475 73.3921 17.725C73.9921 17.975 74.7505 18.2 75.6671 18.4C77.1671 18.7 78.3338 18.9917 79.1671 19.275C80.0171 19.5417 80.7505 20.025 81.3671 20.725C81.9838 21.425 82.2921 22.4083 82.2921 23.675C82.2921 24.875 81.9588 25.9083 81.2921 26.775C80.6255 27.6417 79.7421 28.3083 78.6421 28.775C77.5588 29.225 76.3838 29.45 75.1171 29.45ZM86.798 29V11.6H87.723V19.825H99.273V11.6H100.198V29H99.273V20.75H87.723V29H86.798ZM111.529 11.6H112.504L119.654 29H118.654L116.304 23.25H107.729L105.354 29H104.379L111.529 11.6ZM108.104 22.35H115.929L112.004 12.8L108.104 22.35ZM134.285 12.175C135.285 12.6417 136.068 13.3333 136.635 14.25C137.218 15.1667 137.51 16.1833 137.51 17.3C137.51 18.6 137.11 19.7667 136.31 20.8C135.526 21.8167 134.518 22.4917 133.285 22.825L137.71 29H136.61L132.335 23L131.535 23.025H125.26V29H124.335V11.6H130.96C131.693 11.6 132.318 11.65 132.835 11.75C133.368 11.8333 133.851 11.975 134.285 12.175ZM131.785 22.1C132.651 22.1 133.451 21.8833 134.185 21.45C134.918 21.0167 135.501 20.4333 135.935 19.7C136.368 18.9667 136.585 18.1667 136.585 17.3C136.585 16.3333 136.326 15.4583 135.81 14.675C135.31 13.8917 134.61 13.3083 133.71 12.925C133.06 12.6583 132.143 12.525 130.96 12.525H125.26V22.1H131.785ZM143.016 11.6H155.266V12.525H143.941V19.575H153.791V20.5H143.941V28.075H155.266V29H143.016V11.6ZM179.877 11.6L186.052 20.9L192.177 11.6H193.277L186.502 21.875V29H185.577V21.875L178.777 11.6H179.877ZM204.533 11.225C205.833 11.225 207.033 11.55 208.133 12.2C209.233 12.8333 210.1 13.7 210.733 14.8C211.383 15.9 211.708 17.1 211.708 18.4V22.2C211.708 23.5 211.383 24.7 210.733 25.8C210.1 26.9 209.233 27.775 208.133 28.425C207.033 29.0583 205.833 29.375 204.533 29.375C203.233 29.375 202.033 29.0583 200.933 28.425C199.833 27.775 198.958 26.9 198.308 25.8C197.675 24.7 197.358 23.5 197.358 22.2V18.4C197.358 17.1 197.675 15.9 198.308 14.8C198.958 13.7 199.833 12.8333 200.933 12.2C202.033 11.55 203.233 11.225 204.533 11.225ZM198.283 22.2C198.283 23.3333 198.558 24.3833 199.108 25.35C199.675 26.3 200.433 27.0583 201.383 27.625C202.35 28.175 203.4 28.45 204.533 28.45C205.666 28.45 206.708 28.175 207.658 27.625C208.625 27.0583 209.383 26.3 209.933 25.35C210.5 24.3833 210.783 23.3333 210.783 22.2V18.4C210.783 17.2667 210.5 16.225 209.933 15.275C209.383 14.3083 208.625 13.55 207.658 13C206.708 12.4333 205.666 12.15 204.533 12.15C203.4 12.15 202.35 12.4333 201.383 13C200.433 13.55 199.675 14.3083 199.108 15.275C198.558 16.225 198.283 17.2667 198.283 18.4V22.2ZM216.014 11.6H216.939V22.35C216.939 23.45 217.214 24.4667 217.764 25.4C218.314 26.3333 219.056 27.075 219.989 27.625C220.922 28.175 221.939 28.45 223.039 28.45C224.139 28.45 225.156 28.175 226.089 27.625C227.022 27.075 227.764 26.3333 228.314 25.4C228.864 24.4667 229.139 23.45 229.139 22.35V11.6H230.064V22.35C230.064 23.6167 229.747 24.7917 229.114 25.875C228.481 26.9417 227.622 27.7917 226.539 28.425C225.472 29.0583 224.306 29.375 223.039 29.375C221.772 29.375 220.597 29.0583 219.514 28.425C218.447 27.7917 217.597 26.9417 216.964 25.875C216.331 24.7917 216.014 23.6167 216.014 22.35V11.6ZM245.32 12.175C246.32 12.6417 247.103 13.3333 247.67 14.25C248.253 15.1667 248.545 16.1833 248.545 17.3C248.545 18.6 248.145 19.7667 247.345 20.8C246.562 21.8167 245.553 22.4917 244.32 22.825L248.745 29H247.645L243.37 23L242.57 23.025H236.295V29H235.37V11.6H241.995C242.728 11.6 243.353 11.65 243.87 11.75C244.403 11.8333 244.887 11.975 245.32 12.175ZM242.82 22.1C243.687 22.1 244.487 21.8833 245.22 21.45C245.953 21.0167 246.537 20.4333 246.97 19.7C247.403 18.9667 247.62 18.1667 247.62 17.3C247.62 16.3333 247.362 15.4583 246.845 14.675C246.345 13.8917 245.645 13.3083 244.745 12.925C244.095 12.6583 243.178 12.525 241.995 12.525H236.295V22.1H242.82ZM88.648 54H87.723V36.6H94.723C95.8897 36.6 96.9647 36.85 97.948 37.35C98.948 37.85 99.7397 38.5583 100.323 39.475C100.906 40.3917 101.198 41.45 101.198 42.65C101.198 43.8 100.898 44.8583 100.298 45.825C99.7147 46.7917 98.9147 47.5333 97.898 48.05C97.0147 48.5 95.9563 48.725 94.723 48.725H88.648V54ZM88.648 47.8H94.723C95.7897 47.8 96.6647 47.6333 97.348 47.3C98.2313 46.8833 98.9397 46.2583 99.473 45.425C100.006 44.5917 100.273 43.6667 100.273 42.65C100.273 41.65 100.006 40.7333 99.473 39.9C98.9397 39.0667 98.223 38.4417 97.323 38.025C96.6397 37.6917 95.773 37.525 94.723 37.525H88.648V47.8ZM115.779 37.175C116.779 37.6417 117.562 38.3333 118.129 39.25C118.712 40.1667 119.004 41.1833 119.004 42.3C119.004 43.6 118.604 44.7667 117.804 45.8C117.021 46.8167 116.012 47.4917 114.779 47.825L119.204 54H118.104L113.829 48L113.029 48.025H106.754V54H105.829V36.6H112.454C113.187 36.6 113.812 36.65 114.329 36.75C114.862 36.8333 115.346 36.975 115.779 37.175ZM113.279 47.1C114.146 47.1 114.946 46.8833 115.679 46.45C116.412 46.0167 116.996 45.4333 117.429 44.7C117.862 43.9667 118.079 43.1667 118.079 42.3C118.079 41.3333 117.821 40.4583 117.304 39.675C116.804 38.8917 116.104 38.3083 115.204 37.925C114.554 37.6583 113.637 37.525 112.454 37.525H106.754V47.1H113.279ZM130.51 36.225C131.81 36.225 133.01 36.55 134.11 37.2C135.21 37.8333 136.076 38.7 136.71 39.8C137.36 40.9 137.685 42.1 137.685 43.4V47.2C137.685 48.5 137.36 49.7 136.71 50.8C136.076 51.9 135.21 52.775 134.11 53.425C133.01 54.0583 131.81 54.375 130.51 54.375C129.21 54.375 128.01 54.0583 126.91 53.425C125.81 52.775 124.935 51.9 124.285 50.8C123.651 49.7 123.335 48.5 123.335 47.2V43.4C123.335 42.1 123.651 40.9 124.285 39.8C124.935 38.7 125.81 37.8333 126.91 37.2C128.01 36.55 129.21 36.225 130.51 36.225ZM124.26 47.2C124.26 48.3333 124.535 49.3833 125.085 50.35C125.651 51.3 126.41 52.0583 127.36 52.625C128.326 53.175 129.376 53.45 130.51 53.45C131.643 53.45 132.685 53.175 133.635 52.625C134.601 52.0583 135.36 51.3 135.91 50.35C136.476 49.3833 136.76 48.3333 136.76 47.2V43.4C136.76 42.2667 136.476 41.225 135.91 40.275C135.36 39.3083 134.601 38.55 133.635 38C132.685 37.4333 131.643 37.15 130.51 37.15C129.376 37.15 128.326 37.4333 127.36 38C126.41 38.55 125.651 39.3083 125.085 40.275C124.535 41.225 124.26 42.2667 124.26 43.4V47.2ZM148.716 54.375C147.532 54.375 146.432 54.1083 145.416 53.575C144.399 53.025 143.566 52.275 142.916 51.325C142.266 50.375 141.882 49.325 141.766 48.175H142.691C142.807 49.1583 143.149 50.0583 143.716 50.875C144.282 51.675 144.999 52.3083 145.866 52.775C146.749 53.225 147.699 53.45 148.716 53.45C149.832 53.45 150.857 53.175 151.791 52.625C152.724 52.075 153.466 51.3167 154.016 50.35C154.566 49.3833 154.841 48.3 154.841 47.1V37.525H147.041V36.6H155.741V47.1C155.741 48.4667 155.424 49.7083 154.791 50.825C154.174 51.925 153.324 52.7917 152.241 53.425C151.174 54.0583 149.999 54.375 148.716 54.375ZM161.521 36.6H173.771V37.525H162.446V44.575H172.296V45.5H162.446V53.075H173.771V54H161.521V36.6ZM180.052 47.35C180.052 48.45 180.327 49.4667 180.877 50.4C181.444 51.3333 182.194 52.075 183.127 52.625C184.077 53.175 185.102 53.45 186.202 53.45C187.336 53.45 188.361 53.225 189.277 52.775C190.194 52.325 190.911 51.7 191.427 50.9C191.961 50.1 192.236 49.2 192.252 48.2H193.152C193.152 49.35 192.844 50.4 192.227 51.35C191.627 52.2833 190.794 53.025 189.727 53.575C188.677 54.1083 187.502 54.375 186.202 54.375C184.936 54.375 183.761 54.0583 182.677 53.425C181.594 52.7917 180.736 51.9417 180.102 50.875C179.469 49.7917 179.152 48.6167 179.152 47.35V43.25C179.152 41.9833 179.461 40.8167 180.077 39.75C180.711 38.6667 181.561 37.8083 182.627 37.175C183.711 36.5417 184.886 36.225 186.152 36.225C187.436 36.225 188.602 36.5 189.652 37.05C190.719 37.5833 191.561 38.325 192.177 39.275C192.794 40.2083 193.102 41.25 193.102 42.4H192.202C192.186 41.4 191.911 40.5 191.377 39.7C190.844 38.9 190.119 38.275 189.202 37.825C188.302 37.375 187.286 37.15 186.152 37.15C185.052 37.15 184.036 37.425 183.102 37.975C182.169 38.525 181.427 39.2667 180.877 40.2C180.327 41.1333 180.052 42.15 180.052 43.25V47.35ZM211.558 36.6V37.525H204.983V54H204.083V37.525H197.508V36.6H211.558ZM223.414 45.675C221.997 45.3917 220.839 45.0833 219.939 44.75C219.056 44.4 218.356 43.9333 217.839 43.35C217.339 42.75 217.089 41.9833 217.089 41.05C217.089 40.0833 217.339 39.2333 217.839 38.5C218.356 37.7667 219.072 37.2 219.989 36.8C220.922 36.4 221.997 36.2 223.214 36.2C224.381 36.2 225.447 36.45 226.414 36.95C227.397 37.4333 228.172 38.1167 228.739 39C229.306 39.8833 229.589 40.8917 229.589 42.025H228.664C228.664 41.0417 228.422 40.175 227.939 39.425C227.456 38.675 226.797 38.1 225.964 37.7C225.131 37.2833 224.206 37.075 223.189 37.075C222.289 37.075 221.447 37.2167 220.664 37.5C219.881 37.7833 219.239 38.2167 218.739 38.8C218.256 39.3833 218.014 40.1167 218.014 41C218.014 41.8 218.247 42.4417 218.714 42.925C219.181 43.3917 219.789 43.75 220.539 44C221.289 44.25 222.339 44.5167 223.689 44.8C225.056 45.0833 226.114 45.3583 226.864 45.625C227.631 45.875 228.272 46.3 228.789 46.9C229.322 47.5 229.589 48.3417 229.589 49.425C229.589 50.5083 229.297 51.425 228.714 52.175C228.147 52.9083 227.389 53.4583 226.439 53.825C225.489 54.1917 224.456 54.375 223.339 54.375C221.956 54.375 220.739 54.1167 219.689 53.6C218.639 53.0833 217.831 52.3583 217.264 51.425C216.714 50.475 216.439 49.3917 216.439 48.175H217.364C217.364 49.2417 217.597 50.175 218.064 50.975C218.547 51.775 219.239 52.4 220.139 52.85C221.039 53.2833 222.106 53.5 223.339 53.5C224.872 53.5 226.139 53.1333 227.139 52.4C228.156 51.6667 228.664 50.6667 228.664 49.4C228.664 48.5333 228.447 47.8667 228.014 47.4C227.581 46.9333 227.031 46.6 226.364 46.4C225.714 46.1833 224.731 45.9417 223.414 45.675Z" fill="black"/>
<path d="M3 20.4737C3 12.4801 9.39593 6 17.2857 6H48.7143C56.6041 6 63 12.4801 63 20.4737V46.5263C63 54.5199 56.6041 61 48.7143 61H17.2857C9.39593 61 3 54.5199 3 46.5263V20.4737Z" fill="#FFEC44"/>
<path fill-rule="evenodd" clip-rule="evenodd" d="M29.9661 14.164C21.873 14.164 15.3123 20.8794 15.3123 29.1633C15.3123 37.4472 21.873 44.1626 29.9661 44.1626C34.0092 44.1626 37.3316 42.4832 39.9847 39.7719C42.6433 37.0549 44.6199 33.3088 44.6199 29.1633C44.6199 20.8794 38.0592 14.164 29.9661 14.164ZM13.4762 29.1633C13.4762 19.0263 20.6395 13.7193 29.9661 12.7544C38.7864 13.7193 45.4721 19.5088 46.4272 29.1633C45.9497 33.9062 45.2054 36.1725 42.6068 39.2895L51.6803 48.9386C52.226 49.4957 54.4373 52.6161 53.5905 53.2807C52.7436 53.9453 50.2476 53.2807 49.2925 52.3158L38.7864 42.6667C35.7426 45.318 34.1277 45.5614 29.8167 45.5614C20.6395 45.5614 13.9537 38.807 13.4762 29.1633Z" fill="black"/>
<path fill-rule="evenodd" clip-rule="evenodd" d="M26.4342 20.1074C26.5443 18.2939 28.017 17.0965 29.8167 17.0965C31.6164 17.0965 33.0891 18.2939 33.1993 20.1074C33.3238 20.1568 33.4467 20.2089 33.5679 20.2635C34.899 19.0614 36.9318 19.1109 38.2053 20.4144C39.478 21.7171 39.5263 23.7978 38.3519 25.1603C38.4053 25.2843 38.4561 25.4101 38.5044 25.5376C40.2762 25.6503 41.6794 27.1577 41.6794 28.9999C41.6794 30.842 40.2762 32.3494 38.5044 32.4622C38.4561 32.5896 38.4053 32.7154 38.3519 32.8394C39.5263 34.202 39.478 36.2826 38.2044 37.5853C36.9317 38.8889 34.899 38.9383 33.5679 37.7362C33.4467 37.7909 33.3238 37.8429 33.1993 37.8923C33.0891 39.7059 31.6164 41.1421 29.8167 41.1421C28.017 41.1421 26.5443 39.7059 26.4342 37.8923C26.3096 37.8429 26.1868 37.7909 26.0656 37.7362C24.7344 38.9383 22.7017 38.8889 21.429 37.5853C20.1555 36.2826 20.1071 34.202 21.2815 32.8394C21.2282 32.7154 21.1773 32.5896 21.129 32.4622C19.3573 32.3494 17.9541 30.842 17.9541 28.9999C17.9541 27.1577 19.3573 25.6503 21.129 25.5376C21.1773 25.4101 21.2282 25.2843 21.2815 25.1603C20.1071 23.7978 20.1555 21.7171 21.429 20.4144C22.7017 19.1109 24.7344 19.0614 26.0656 20.2635C26.1868 20.2089 26.3096 20.1568 26.4342 20.1074ZM22.6271 24.0935C23.0576 24.535 23.1364 25.1872 22.8983 25.7102C22.8085 25.9096 22.7262 26.1126 22.6517 26.3199C22.4585 26.8619 21.9526 27.2653 21.3434 27.2653C20.4071 27.2653 19.6487 28.0415 19.6487 28.9999C19.6487 29.9582 20.4071 30.7345 21.3434 30.7345C21.9526 30.7345 22.4585 31.1378 22.6517 31.6799C22.7262 31.8872 22.8085 32.0901 22.8983 32.2896C23.1364 32.8126 23.0576 33.4647 22.6271 33.9062C21.9654 34.5836 21.9654 35.6816 22.6271 36.3589C23.2889 37.0363 24.3616 37.0363 25.0234 36.3589C25.4547 35.9184 26.0918 35.8377 26.6028 36.0814C26.7977 36.1733 26.9959 36.2575 27.1984 36.3338C27.728 36.5315 28.1221 37.0493 28.1221 37.6729C28.1221 38.6313 28.8804 39.4075 29.8167 39.4075C30.753 39.4075 31.5114 38.6313 31.5114 37.6729C31.5114 37.0493 31.9054 36.5315 32.435 36.3338C32.6375 36.2575 32.8366 36.1733 33.0307 36.0814C33.5416 35.8377 34.1788 35.9184 34.6101 36.3589C35.2718 37.0363 36.3445 37.0363 37.0063 36.3589C37.6681 35.6816 37.6681 34.5836 37.0063 33.9062C36.5759 33.4647 36.4971 32.8126 36.7352 32.2896C36.825 32.0901 36.9072 31.8872 36.9817 31.6799C37.1749 31.1378 37.6808 30.7345 38.29 30.7345C39.2263 30.7345 39.9847 29.9582 39.9847 28.9999C39.9847 28.0415 39.2263 27.2653 38.29 27.2653C37.6808 27.2653 37.1749 26.8619 36.9817 26.3199C36.9072 26.1126 36.825 25.9096 36.7352 25.7102C36.4971 25.1872 36.5759 24.535 37.0063 24.0935C37.6681 23.4162 37.6681 22.3182 37.0063 21.6408C36.3445 20.9634 35.2718 20.9634 34.6101 21.6408C34.1788 22.0814 33.5416 22.162 33.0307 21.9183C32.8366 21.8264 32.6375 21.7423 32.435 21.6659C31.9054 21.4682 31.5114 20.9504 31.5114 20.3268C31.5114 19.3684 30.753 18.5922 29.8167 18.5922C28.8804 18.5922 28.1221 19.3684 28.1221 20.3268C28.1221 20.9504 27.728 21.4682 27.1984 21.6659C26.9959 21.7423 26.7968 21.8264 26.6028 21.9183C26.0918 22.162 25.4547 22.0814 25.0234 21.6408C24.3616 20.9634 23.2889 20.9634 22.6271 21.6408C21.9654 22.3182 21.9654 23.4162 22.6271 24.0935Z" fill="black"/>
<path fill-rule="evenodd" clip-rule="evenodd" d="M29.8167 25.1603C28.0184 25.1603 26.0656 27.1591 26.0656 28.9999C26.0656 30.8406 27.9146 33.0175 29.7129 33.0175C31.5113 33.0175 33.5679 30.8406 33.5679 28.9999C33.5679 27.1591 31.6151 25.1603 29.8167 25.1603ZM24.9321 28.9999C24.9321 26.2383 27.1188 24.0001 29.8167 24.0001C32.5147 24.0001 34.7013 26.2383 34.7013 28.9999C34.7013 31.7614 32.5147 33.9996 29.8167 33.9996C27.1188 33.9996 24.9321 31.7614 24.9321 28.9999Z" fill="black"/>
</svg>
