<svg width="30" height="30" viewBox="0 0 30 30" fill="none" xmlns="http://www.w3.org/2000/svg">
<path d="M30 15C30 6.71573 23.2843 0 15 0C6.71573 0 0 6.71573 0 15C0 23.2843 6.71573 30 15 30C23.2843 30 30 23.2843 30 15Z" fill="#EA4C89"/>
<path d="M15 7.5C10.86 7.5 7.5 10.86 7.5 15C7.5 19.14 10.86 22.5 15 22.5C19.125 22.5 22.5 19.14 22.5 15C22.5 10.86 19.125 7.5 15 7.5ZM19.95 10.95C20.85 12.045 21.375 13.425 21.405 14.94C21.195 14.895 19.08 14.475 16.95 14.73C16.905 14.625 16.86 14.505 16.815 14.4C16.68 14.085 16.545 13.77 16.395 13.47C18.735 12.525 19.815 11.13 19.95 10.95ZM15 8.61C16.62 8.61 18.12 9.225 19.245 10.215C19.125 10.38 18.165 11.67 15.885 12.525C14.835 10.59 13.665 9.015 13.5 8.775C13.98 8.67 14.475 8.61 15 8.61ZM12.27 9.21C12.435 9.435 13.575 11.025 14.64 12.915C11.64 13.71 9 13.695 8.715 13.695C9.15 11.7 10.485 10.05 12.27 9.21ZM8.595 15.015C8.595 14.955 8.595 14.88 8.595 14.82C8.865 14.835 11.985 14.865 15.18 13.905C15.36 14.265 15.54 14.625 15.705 15C15.63 15.03 15.54 15.045 15.45 15.075C12.15 16.14 10.395 19.05 10.245 19.29C9.21 18.15 8.595 16.65 8.595 15.015ZM15 21.405C13.515 21.405 12.15 20.895 11.07 20.055C11.19 19.815 12.48 17.31 16.095 16.05C16.11 16.035 16.125 16.035 16.14 16.035C17.04 18.375 17.415 20.325 17.505 20.895C16.74 21.225 15.885 21.405 15 21.405ZM18.57 20.31C18.51 19.92 18.165 18.045 17.325 15.75C19.335 15.435 21.09 15.96 21.315 16.02C21.03 17.805 20.01 19.35 18.57 20.31Z" fill="white"/>
</svg>
