<svg width="30" height="30" viewBox="0 0 30 30" fill="none" xmlns="http://www.w3.org/2000/svg">
<path d="M30 15C30 6.71573 23.2843 0 15 0C6.71573 0 0 6.71573 0 15C0 23.2843 6.71573 30 15 30C23.2843 30 30 23.2843 30 15Z" fill="white"/>
<path d="M9.28125 11.4375C9.28125 11.25 9.1875 11.0625 9.09375 10.9687L7.6875 9.28125V9H12L15.375 16.4062L18.375 9H22.5V9.28125L21.2813 10.4063C21.1875 10.5 21.0938 10.5937 21.1875 10.7812V19.2188C21.1875 19.3125 21.1875 19.5 21.2813 19.5938L22.4062 20.7188V21H16.5V20.7188L17.7188 19.5C17.8125 19.4062 17.8125 19.3125 17.8125 19.125V12.2813L14.4375 20.8125H14.0625L10.125 12.2813V18C10.125 18.2813 10.2188 18.4688 10.3125 18.6562L11.9062 20.5312V20.8125H7.5V20.5312L9.09375 18.6562C9.28125 18.4688 9.375 18.2813 9.28125 18V11.4375Z" fill="black"/>
</svg>
