<svg width="30" height="30" viewBox="0 0 30 30" fill="none" xmlns="http://www.w3.org/2000/svg">
<path d="M30 15C30 6.71573 23.2843 0 15 0C6.71573 0 0 6.71573 0 15C0 23.2843 6.71573 30 15 30C23.2843 30 30 23.2843 30 15Z" fill="#E60023"/>
<path d="M15 7.5C10.875 7.5 7.5 10.875 7.5 15C7.5 18.0938 9.375 20.7187 12 21.8437C12 21.2812 12 20.7188 12.0937 20.1562C12.2812 19.5 13.0312 16.0312 13.0312 16.0312C13.0312 16.0312 12.75 15.5625 12.75 14.8125C12.75 13.6875 13.4063 12.8438 14.1563 12.8438C14.8125 12.8438 15.1875 13.3125 15.1875 13.9687C15.1875 14.625 14.7187 15.6563 14.5312 16.5938C14.3437 17.3438 14.9063 18 15.75 18C17.1563 18 18.0938 16.2187 18.0938 13.9687C18.0938 12.2812 16.9687 11.0625 15 11.0625C12.75 11.0625 11.3438 12.75 11.3438 14.625C11.3438 15.2812 11.5313 15.75 11.8125 16.125C11.9063 16.3125 12 16.3125 11.9062 16.5C11.9062 16.5938 11.8125 16.9688 11.7187 17.0625C11.625 17.25 11.5313 17.3438 11.3438 17.25C10.3125 16.7812 9.84375 15.6562 9.84375 14.3438C9.84375 12.1875 11.625 9.65625 15.1875 9.65625C18.0937 9.65625 19.9687 11.7187 19.9687 13.9687C19.9687 16.875 18.375 19.125 15.9375 19.125C15.0937 19.125 14.3437 18.6562 14.0625 18.1875C14.0625 18.1875 13.5937 19.875 13.5 20.25C13.3125 20.8125 13.0313 21.375 12.75 21.8437C13.4063 22.0312 14.1562 22.125 14.9062 22.125C19.0312 22.125 22.4062 18.75 22.4062 14.625C22.5 10.875 19.125 7.5 15 7.5Z" fill="white"/>
</svg>
