<svg width="30" height="30" viewBox="0 0 30 30" fill="none" xmlns="http://www.w3.org/2000/svg">
<path d="M30 15C30 6.71573 23.2843 0 15 0C6.71573 0 0 6.71573 0 15C0 23.2843 6.71573 30 15 30C23.2843 30 30 23.2843 30 15Z" fill="#FF5700"/>
<path fill-rule="evenodd" clip-rule="evenodd" d="M17.6775 17.3722C17.0047 17.3722 16.4394 16.8315 16.4394 16.1649C16.4394 15.4983 17.0047 14.9398 17.6775 14.9398C18.3503 14.9398 18.8959 15.4983 18.8959 16.1649C18.8959 16.8315 18.3503 17.3722 17.6775 17.3722ZM17.9633 19.7154C17.3366 20.3357 16.3702 20.6373 15.009 20.6373C15.0062 20.6373 15.0028 20.6367 14.9994 20.6367C14.9966 20.6367 14.9932 20.6373 14.9899 20.6373C13.6286 20.6373 12.6628 20.3357 12.0367 19.7154C11.8444 19.5247 11.8444 19.2165 12.0367 19.0265C12.2286 18.8364 12.5396 18.8364 12.732 19.0265C13.164 19.4545 13.9026 19.663 14.9899 19.663C14.9932 19.663 14.9966 19.6635 14.9994 19.6635C15.0028 19.6635 15.0062 19.663 15.009 19.663C16.0963 19.663 16.8354 19.4545 17.268 19.0265C17.4604 18.8358 17.7714 18.8364 17.9633 19.0265C18.1551 19.2171 18.1551 19.5253 17.9633 19.7154ZM11.1041 16.1649C11.1041 15.4988 11.6683 14.9398 12.3405 14.9398C13.0133 14.9398 13.5589 15.4988 13.5589 16.1649C13.5589 16.8315 13.0133 17.3722 12.3405 17.3722C11.6683 17.3722 11.1041 16.8315 11.1041 16.1649ZM20.9985 8.47429C21.4541 8.47429 21.8248 8.84159 21.8248 9.29251C21.8248 9.74398 21.4541 10.1113 20.9985 10.1113C20.5429 10.1113 20.1722 9.74398 20.1722 9.29251C20.1722 8.84159 20.5429 8.47429 20.9985 8.47429ZM24 14.8389C24 13.6567 23.0297 12.6953 21.8366 12.6953C21.3202 12.6953 20.8461 12.8759 20.4737 13.1763C19.1546 12.3547 17.4806 11.8598 15.6863 11.755L16.6222 8.82264L19.1946 9.42293C19.2621 10.351 20.0451 11.0856 20.9985 11.0856C21.9958 11.0856 22.8075 10.2813 22.8075 9.29251C22.8075 8.30429 21.9958 7.5 20.9985 7.5C20.301 7.5 19.6946 7.8935 19.3926 8.46816L16.4034 7.77088C16.1531 7.71236 15.9 7.85505 15.8224 8.09806L14.6603 11.7377C12.7269 11.7845 10.9095 12.2811 9.49369 13.1506C9.12637 12.8658 8.66456 12.6953 8.16337 12.6953C6.97031 12.6953 6 13.6567 6 14.8389C6 15.5696 6.37125 16.2156 6.93656 16.6024C6.91294 16.7724 6.90056 16.9436 6.90056 17.1169C6.90056 18.5945 7.76737 19.969 9.34125 20.9867C10.8499 21.9627 12.8468 22.5 14.9634 22.5C17.0801 22.5 19.077 21.9627 20.5856 20.9867C22.1595 19.969 23.0263 18.5945 23.0263 17.1169C23.0263 16.9592 23.0156 16.8025 22.9959 16.647C23.5989 16.2663 24 15.5981 24 14.8389Z" fill="white"/>
</svg>
