<svg width="30" height="30" viewBox="0 0 30 30" fill="none" xmlns="http://www.w3.org/2000/svg">
<g clip-path="url(#clip0_282_647)">
<rect width="30" height="30" rx="15" fill="#111111"/>
<path d="M22.4763 11.457C21.9589 11.457 21.4465 11.3551 20.9685 11.1571C20.4904 10.9591 20.0561 10.6688 19.6902 10.303C19.3243 9.93708 19.0341 9.50272 18.8361 9.02468C18.6381 8.54664 18.5361 8.03428 18.5361 7.51685H15.7211V18.5399C15.7206 19.0425 15.5619 19.5321 15.2675 19.9394C14.9732 20.3468 14.5581 20.6511 14.0811 20.8094C13.6041 20.9676 13.0894 20.9717 12.6099 20.8211C12.1305 20.6705 11.7106 20.3728 11.4097 19.9702C11.1089 19.5676 10.9425 19.0805 10.9339 18.578C10.9254 18.0755 11.0752 17.5831 11.3622 17.1705C11.6491 16.7579 12.0587 16.4461 12.5327 16.2793C13.0068 16.1125 13.5213 16.0991 14.0034 16.241V13.5046C12.9789 13.3665 11.9366 13.5442 11.0157 14.014C10.0948 14.4838 9.3391 15.2234 8.8496 16.134C8.3601 17.0446 8.16005 18.0829 8.27617 19.1102C8.39229 20.1375 8.81904 21.1049 9.49945 21.8833C10.1799 22.6616 11.0815 23.2139 12.0841 23.4663C13.0866 23.7187 14.1423 23.6593 15.1102 23.2959C16.0781 22.9326 16.912 22.2826 17.5008 21.4328C18.0895 20.5829 18.405 19.5737 18.405 18.5399L18.4867 12.968C19.6433 13.8171 21.0412 14.274 22.476 14.2719L22.4763 11.457Z" fill="url(#paint0_linear_282_647)"/>
<path d="M21.7322 10.6902C20.6872 10.6902 19.685 10.275 18.9461 9.53609C18.2072 8.79716 17.7921 7.79498 17.7921 6.75H14.9771V17.773C14.9766 18.2756 14.8179 18.7653 14.5236 19.1726C14.2292 19.5799 13.8141 19.8843 13.3371 20.0426C12.8601 20.2008 12.3454 20.2049 11.8659 20.0543C11.3865 19.9037 10.9666 19.606 10.6657 19.2034C10.3649 18.8008 10.1984 18.3137 10.1899 17.8112C10.1814 17.3087 10.3312 16.8163 10.6181 16.4037C10.9051 15.9911 11.3146 15.6793 11.7887 15.5125C12.2628 15.3457 12.7773 15.3323 13.2594 15.4742V12.7378C12.2349 12.5996 11.1926 12.7773 10.2716 13.2472C9.35074 13.717 8.59509 14.4566 8.10558 15.3672C7.61608 16.2778 7.41603 17.3161 7.53215 18.3434C7.64827 19.3706 8.07503 20.3381 8.75543 21.1164C9.43584 21.8948 10.3375 22.447 11.3401 22.6995C12.3426 22.9519 13.3983 22.8924 14.3662 22.5291C15.334 22.1657 16.168 21.5157 16.7568 20.6659C17.3455 19.8161 17.661 18.8069 17.661 17.773L17.7431 12.2012C18.8998 13.0503 20.2976 13.5072 21.7324 13.505L21.7322 10.6902Z" fill="url(#paint1_linear_282_647)"/>
<path d="M21.7321 11.3865C20.7582 11.1991 19.8907 10.6513 19.3029 9.85237C18.56 9.27095 18.0504 8.4422 17.8668 7.51685H15.7213V18.5399C15.7212 19.063 15.55 19.5718 15.2337 19.9885C14.9174 20.4053 14.4735 20.7071 13.9696 20.8478C13.4658 20.9886 12.9297 20.9607 12.4432 20.7682C11.9567 20.5758 11.5466 20.2295 11.2754 19.7821C10.793 19.4682 10.4398 18.9912 10.2802 18.4383C10.1205 17.8854 10.1651 17.2935 10.4059 16.7708C10.6466 16.2481 11.0674 15.8295 11.5913 15.5914C12.1152 15.3534 12.7073 15.3118 13.2594 15.4742V13.4605C12.3125 13.4727 11.3878 13.7494 10.5898 14.2592C9.79171 14.7691 9.15207 15.4919 8.74304 16.346C8.33401 17.2001 8.17187 18.1516 8.27492 19.093C8.37798 20.0344 8.74212 20.9282 9.32625 21.6736C10.0678 22.2924 10.9704 22.687 11.9283 22.8111C12.8861 22.9352 13.8595 22.7836 14.7342 22.3742C15.609 21.9648 16.3489 21.3146 16.8673 20.4996C17.3857 19.6847 17.661 18.7389 17.661 17.773L17.7431 12.2012C18.8997 13.0503 20.2976 13.5072 21.7324 13.505L21.7321 11.3865Z" fill="url(#paint2_linear_282_647)"/>
</g>
<defs>
<linearGradient id="paint0_linear_282_647" x1="9.3722" y1="21.7715" x2="21.0815" y2="10.0622" gradientUnits="userSpaceOnUse">
<stop stop-color="#B5053C"/>
<stop offset="0.233" stop-color="#C90441"/>
<stop offset="0.737" stop-color="#F0014B"/>
<stop offset="1" stop-color="#FF004F"/>
</linearGradient>
<linearGradient id="paint1_linear_282_647" x1="8.45373" y1="21.179" x2="20.788" y2="8.84474" gradientUnits="userSpaceOnUse">
<stop stop-color="#00B2C9"/>
<stop offset="0.283" stop-color="#00C8D4"/>
<stop offset="0.741" stop-color="#00E6E4"/>
<stop offset="1" stop-color="#00F1EA"/>
</linearGradient>
<linearGradient id="paint2_linear_282_647" x1="1.54346" y1="28.8448" x2="28.8454" y2="1.54279" gradientUnits="userSpaceOnUse">
<stop stop-color="#DDE3E4"/>
<stop offset="1" stop-color="#FCF7F7"/>
</linearGradient>
<clipPath id="clip0_282_647">
<rect width="30" height="30" fill="white"/>
</clipPath>
</defs>
</svg>
