<svg width="30" height="30" viewBox="0 0 30 30" fill="none" xmlns="http://www.w3.org/2000/svg">
<path d="M30 15C30 6.71573 23.2843 0 15 0C6.71573 0 0 6.71573 0 15C0 23.2843 6.71573 30 15 30C23.2843 30 30 23.2843 30 15Z" fill="#001935"/>
<path d="M16.3012 22.5C14.0413 22.5 12.3652 21.3418 12.3652 18.564V14.1196H10.3125V11.709C12.5724 11.1252 13.514 9.1855 13.6176 7.5H15.9622V11.323H18.6929V14.1196H15.9622V17.9896C15.9622 19.1478 16.546 19.5527 17.4782 19.5527H18.8059V22.5H16.3012Z" fill="white"/>
</svg>
