<svg width="30" height="30" viewBox="0 0 30 30" fill="none" xmlns="http://www.w3.org/2000/svg">
<path d="M30 15C30 6.71573 23.2843 0 15 0C6.71573 0 0 6.71573 0 15C0 23.2843 6.71573 30 15 30C23.2843 30 30 23.2843 30 15Z" fill="#9146FF"/>
<path d="M11.2521 8.83887L8.57349 11.5174V21.1603H11.7878V23.8389L14.4663 21.1603H16.6092L21.4306 16.3389V8.83887H11.2521ZM20.3592 15.8032L18.2163 17.946H16.0735L14.1985 19.821V17.946H11.7878V9.9103H20.3592V15.8032Z" fill="white"/>
<path d="M18.7521 11.7853H17.6806V14.9996H18.7521V11.7853Z" fill="white"/>
<path d="M15.8056 11.7853H14.7342V14.9996H15.8056V11.7853Z" fill="white"/>
</svg>
