<svg width="30" height="30" viewBox="0 0 30 30" fill="none" xmlns="http://www.w3.org/2000/svg">
<rect width="30" height="30" rx="15" fill="#F79A38"/>
<path d="M19.6782 17.0946C20.0718 16.7011 20.128 16.1389 19.7907 15.5767C19.5096 15.1269 19.0036 14.902 18.4414 15.0145C18.2165 15.0707 17.9916 15.1831 17.7667 15.3518C16.0239 16.5324 13.6626 16.4762 11.9198 15.2956C11.8073 15.2393 11.6949 15.1831 11.5824 15.1269C10.964 14.8458 10.3456 14.9582 10.0083 15.5204C9.61472 16.0827 9.67094 16.7011 10.1769 17.2071C10.2894 17.3195 10.4018 17.3757 10.458 17.4882L10.5143 17.5444C11.3013 18.1628 12.2571 18.5564 13.494 18.725L12.7631 19.4559C12.1447 20.0743 11.47 20.749 10.8516 21.3674C10.6829 21.5361 10.458 21.8172 10.458 22.2107C10.458 22.7167 10.7391 23.2227 11.2451 23.4476C11.4138 23.56 11.5824 23.56 11.7511 23.56C12.0322 23.56 12.3695 23.4476 12.5944 23.1665C13.4377 22.3232 14.1124 21.6485 14.787 20.9739C14.8433 20.9176 14.8432 20.9176 14.8432 20.9176C14.8432 20.9176 14.8995 20.9176 14.8995 20.9739C15.3492 21.4798 15.8552 21.9296 16.305 22.4356C16.5299 22.6605 16.7548 22.8854 16.9796 23.1102C17.2607 23.3914 17.4856 23.5038 17.8229 23.5038C18.3289 23.56 18.8911 23.2227 19.116 22.7167C19.3409 22.2669 19.2285 21.7047 18.8349 21.3674C18.2727 20.8052 17.7105 20.1868 17.0921 19.6246L16.1363 18.6688C16.6423 18.6126 17.2045 18.5001 17.7105 18.2753C18.5538 17.9942 19.1722 17.6006 19.6782 17.0946Z" fill="white"/>
<path d="M14.8432 15.5204C17.2607 15.5204 19.2285 13.6089 19.2285 11.1914C19.2285 10.0108 18.7787 8.88639 17.9354 8.04308C17.0921 7.19977 16.0239 6.75 14.8995 6.75C12.482 6.75 10.5705 8.71772 10.5142 11.079C10.5142 12.2596 10.964 13.3278 11.8073 14.1711C12.5944 15.0707 13.6626 15.5204 14.8432 15.5204ZM13.6064 9.89837C13.9437 9.56104 14.3935 9.39237 14.8432 9.39237C15.8552 9.39237 16.5861 10.1795 16.5861 11.1352C16.5861 12.1472 15.799 12.8781 14.8432 12.8781C13.8313 12.8781 13.1004 12.091 13.1004 11.1352C13.1004 10.6855 13.2691 10.2357 13.6064 9.89837Z" fill="white"/>
<path d="M19.6782 17.0946C20.0718 16.7011 20.128 16.1389 19.7907 15.5767C19.5096 15.1269 19.0036 14.902 18.4414 15.0145C18.2165 15.0707 17.9916 15.1831 17.7667 15.3518C16.0239 16.5324 13.6626 16.4762 11.9198 15.2956C11.8073 15.2393 11.6949 15.1831 11.5824 15.1269C10.964 14.8458 10.3456 14.9582 10.0083 15.5204C9.61472 16.0827 9.67094 16.7011 10.1769 17.2071C10.2894 17.3195 10.4018 17.3757 10.458 17.4882L10.5143 17.5444C11.3013 18.1628 12.2571 18.5564 13.494 18.725L12.7631 19.4559C12.1447 20.0743 11.47 20.749 10.8516 21.3674C10.6829 21.5361 10.458 21.8172 10.458 22.2107C10.458 22.7167 10.7391 23.2227 11.2451 23.4476C11.4138 23.56 11.5824 23.56 11.7511 23.56C12.0322 23.56 12.3695 23.4476 12.5944 23.1665C13.4377 22.3232 14.1124 21.6485 14.787 20.9739C14.8433 20.9176 14.8432 20.9176 14.8432 20.9176C14.8432 20.9176 14.8995 20.9176 14.8995 20.9739C15.3492 21.4798 15.8552 21.9296 16.305 22.4356C16.5299 22.6605 16.7548 22.8854 16.9796 23.1102C17.2607 23.3914 17.4856 23.5038 17.8229 23.5038C18.3289 23.56 18.8911 23.2227 19.116 22.7167C19.3409 22.2669 19.2285 21.7047 18.8349 21.3674C18.2727 20.8052 17.7105 20.1868 17.0921 19.6246L16.1363 18.6688C16.6423 18.6126 17.2045 18.5001 17.7105 18.2753C18.5538 17.9942 19.1722 17.6006 19.6782 17.0946Z" fill="white"/>
</svg>
