<svg width="13" height="13" viewBox="0 0 13 13" fill="none" xmlns="http://www.w3.org/2000/svg">
<path d="M3.25 12.5357C3.25 12.2804 3.45893 12.0714 3.71429 12.0714H10.6786C11.4493 12.0714 12.0714 11.4493 12.0714 10.6786V2.32143C12.0714 1.55071 11.4493 0.928571 10.6786 0.928571H3.71429C3.45893 0.928571 3.25 0.719643 3.25 0.464286C3.25 0.208929 3.45893 0 3.71429 0H10.6786C11.96 0 13 1.04 13 2.32143V10.6786C13 11.96 11.96 13 10.6786 13H3.71429C3.45893 13 3.25 12.7911 3.25 12.5357Z" fill="black"/>
<path d="M8.63105 6.96429L6.63466 8.9561C6.45359 9.13717 6.45359 9.43428 6.63466 9.61535C6.81573 9.79642 7.11284 9.79642 7.29391 9.61535L10.0796 6.82963C10.2607 6.64856 10.2607 6.35146 10.0796 6.17038L7.29391 3.38467C7.11284 3.2036 6.81573 3.2036 6.63466 3.38467C6.45359 3.56574 6.45359 3.86285 6.63466 4.04392L8.63105 6.03572H0.464286C0.208929 6.03572 0 6.24465 0 6.50001C0 6.75537 0.208929 6.96429 0.464286 6.96429H8.63105Z" fill="black"/>
</svg>
