<svg width="55" height="55" viewBox="0 0 55 55" fill="none" xmlns="http://www.w3.org/2000/svg">
<path d="M55 27.5C55 42.6878 42.6878 55 27.5 55C12.3122 55 0 42.6878 0 27.5C0 12.3122 12.3122 0 27.5 0C42.6878 0 55 12.3122 55 27.5Z" fill="white"/>
<path fill-rule="evenodd" clip-rule="evenodd" d="M26.3929 15.1429C20.1797 15.1429 15.1429 20.1797 15.1429 26.3929C15.1429 32.6062 20.1797 37.643 26.3929 37.643C29.4969 37.643 32.3051 36.3872 34.3419 34.3537C36.383 32.3158 37.643 29.5022 37.643 26.3929C37.643 20.1797 32.6062 15.1429 26.3929 15.1429ZM13 26.3929C13 18.9957 18.9957 13 26.3929 13C33.7901 13 39.7858 18.9957 39.7858 26.3929C39.7858 29.7079 38.5805 32.7433 36.5855 35.0812L42.6851 41.1701C43.1041 41.588 43.1051 42.2673 42.6873 42.6851C42.2694 43.1041 41.5901 43.1051 41.1723 42.6873L35.0694 36.5962C32.7326 38.5848 29.7026 39.7858 26.3929 39.7858C18.9957 39.7858 13 33.7901 13 26.3929Z" fill="black"/>
</svg>
